HIERARCHY
ROOT Hips
{
	OFFSET 0.000000 100.481300 0.000000
	CHANNELS 6 Xposition Yposition Zposition Xrotation Yrotation Zrotation
	JOINT Spine
	{
		OFFSET -0.279200 12.230698 -2.892100
		CHANNELS 3 Xrotation Yrotation Zrotation
		JOINT Spine1
		{
			OFFSET -0.325700 14.269203 -3.374200
			CHANNELS 3 Xrotation Yrotation Zrotation
			JOINT Spine2
			{
				OFFSET -0.372300 16.307602 -0.352600
				CHANNELS 3 Xrotation Yrotation Zrotation
				JOINT Neck
				{
					OFFSET -0.418800 17.814194 8.416900
					CHANNELS 3 Xrotation Yrotation Zrotation
					JOINT Head
					{
						OFFSET 0.000000 7.031097 3.806800
						CHANNELS 3 Xrotation Yrotation Zrotation
						JOINT HeadTop_End
						{
							OFFSET 0.000000 24.646606 12.978600
							CHANNELS 3 Xrotation Yrotation Zrotation
							End Site
							{
								OFFSET 0.000000 27.854965 0.000000
							}
						}
					}
				}
				JOINT LeftShoulder
				{
					OFFSET 16.952999 14.495407 -7.737500
					CHANNELS 3 Xrotation Yrotation Zrotation
					JOINT LeftArm
					{
						OFFSET 9.308998 -2.777710 0.208600
						CHANNELS 3 Xrotation Yrotation Zrotation
						JOINT LeftForeArm
						{
							OFFSET 29.972298 0.000000 0.000000
							CHANNELS 3 Xrotation Yrotation Zrotation
							JOINT LeftHand
							{
								OFFSET 26.026505 0.000000 0.000000
								CHANNELS 3 Xrotation Yrotation Zrotation
								JOINT LeftHandThumb1
								{
									OFFSET 12.240501 -7.147949 9.207150
									CHANNELS 3 Xrotation Yrotation Zrotation
									JOINT LeftHandThumb2
									{
										OFFSET 4.138618 -2.389435 2.389433
										CHANNELS 3 Xrotation Yrotation Zrotation
										JOINT LeftHandThumb3
										{
											OFFSET 2.726913 -1.574387 1.574386
											CHANNELS 3 Xrotation Yrotation Zrotation
											JOINT LeftHandThumb4
											{
												OFFSET 3.941010 -2.275345 2.275342
												CHANNELS 3 Xrotation Yrotation Zrotation
												End Site
												{
													OFFSET -0.005798 5.087799 0.009903
												}
											}
										}
									}
								}
								JOINT LeftHandIndex1
								{
									OFFSET 24.424698 -1.985611 5.953459
									CHANNELS 3 Xrotation Yrotation Zrotation
									JOINT LeftHandIndex2
									{
										OFFSET 6.426697 0.000000 0.000000
										CHANNELS 3 Xrotation Yrotation Zrotation
										JOINT LeftHandIndex3
										{
											OFFSET 5.337898 0.000000 0.000000
											CHANNELS 3 Xrotation Yrotation Zrotation
											JOINT LeftHandIndex4
											{
												OFFSET 4.409401 0.000000 0.000000
												CHANNELS 3 Xrotation Yrotation Zrotation
												End Site
												{
													OFFSET 0.000000 4.409363 0.014373
												}
											}
										}
									}
								}
								JOINT LeftHandMiddle1
								{
									OFFSET 23.810104 0.000000 0.000000
									CHANNELS 3 Xrotation Yrotation Zrotation
									JOINT LeftHandMiddle2
									{
										OFFSET 7.176498 0.000000 0.000000
										CHANNELS 3 Xrotation Yrotation Zrotation
										JOINT LeftHandMiddle3
										{
											OFFSET 6.774902 0.000000 0.000000
											CHANNELS 3 Xrotation Yrotation Zrotation
											JOINT LeftHandMiddle4
											{
												OFFSET 5.403328 0.000000 0.000000
												CHANNELS 3 Xrotation Yrotation Zrotation
												End Site
												{
													OFFSET -0.027702 5.403244 0.017414
												}
											}
										}
									}
								}
								JOINT LeftHandRing1
								{
									OFFSET 22.908401 -0.839279 -6.020567
									CHANNELS 3 Xrotation Yrotation Zrotation
									JOINT LeftHandRing2
									{
										OFFSET 6.337502 0.000000 0.000000
										CHANNELS 3 Xrotation Yrotation Zrotation
										JOINT LeftHandRing3
										{
											OFFSET 5.779297 0.000000 0.000000
											CHANNELS 3 Xrotation Yrotation Zrotation
											JOINT LeftHandRing4
											{
												OFFSET 4.965698 0.000000 0.000000
												CHANNELS 3 Xrotation Yrotation Zrotation
												End Site
												{
													OFFSET 0.000000 4.965668 0.016186
												}
											}
										}
									}
								}
								JOINT LeftHandPinky1
								{
									OFFSET 20.037003 -1.530319 -10.950146
									CHANNELS 3 Xrotation Yrotation Zrotation
									JOINT LeftHandPinky2
									{
										OFFSET 5.254700 0.000000 0.000000
										CHANNELS 3 Xrotation Yrotation Zrotation
										JOINT LeftHandPinky3
										{
											OFFSET 4.810204 0.000000 0.000000
											CHANNELS 3 Xrotation Yrotation Zrotation
											JOINT LeftHandPinky4
											{
												OFFSET 3.647202 0.000000 0.000000
												CHANNELS 3 Xrotation Yrotation Zrotation
												End Site
												{
													OFFSET 0.000000 3.647186 0.011889
												}
											}
										}
									}
								}
							}
						}
					}
				}
				JOINT RightShoulder
				{
					OFFSET -15.141001 14.495407 -7.737500
					CHANNELS 3 Xrotation Yrotation Zrotation
					JOINT RightArm
					{
						OFFSET -9.308998 -2.777710 0.208500
						CHANNELS 3 Xrotation Yrotation Zrotation
						JOINT RightForeArm
						{
							OFFSET -29.972300 0.000000 0.000000
							CHANNELS 3 Xrotation Yrotation Zrotation
							JOINT RightHand
							{
								OFFSET -26.026505 0.000000 0.000000
								CHANNELS 3 Xrotation Yrotation Zrotation
								JOINT RightHandThumb1
								{
									OFFSET -12.240601 -7.148026 9.207092
									CHANNELS 3 Xrotation Yrotation Zrotation
									JOINT RightHandThumb2
									{
										OFFSET -4.138618 -2.389435 2.389433
										CHANNELS 3 Xrotation Yrotation Zrotation
										JOINT RightHandThumb3
										{
											OFFSET -2.726974 -1.574417 1.574421
											CHANNELS 3 Xrotation Yrotation Zrotation
											JOINT RightHandThumb4
											{
												OFFSET -3.941010 -2.275345 2.275343
												CHANNELS 3 Xrotation Yrotation Zrotation
												End Site
												{
													OFFSET 0.005814 5.087799 0.009927
												}
											}
										}
									}
								}
								JOINT RightHandIndex1
								{
									OFFSET -24.424698 -1.985657 5.953444
									CHANNELS 3 Xrotation Yrotation Zrotation
									JOINT RightHandIndex2
									{
										OFFSET -6.426697 0.000000 0.000000
										CHANNELS 3 Xrotation Yrotation Zrotation
										JOINT RightHandIndex3
										{
											OFFSET -5.337898 0.000000 0.000000
											CHANNELS 3 Xrotation Yrotation Zrotation
											JOINT RightHandIndex4
											{
												OFFSET -4.409401 0.000000 0.000000
												CHANNELS 3 Xrotation Yrotation Zrotation
												End Site
												{
													OFFSET 0.000000 4.409363 0.014408
												}
											}
										}
									}
								}
								JOINT RightHandMiddle1
								{
									OFFSET -23.810097 0.000000 0.000000
									CHANNELS 3 Xrotation Yrotation Zrotation
									JOINT RightHandMiddle2
									{
										OFFSET -7.176498 0.000000 0.000000
										CHANNELS 3 Xrotation Yrotation Zrotation
										JOINT RightHandMiddle3
										{
											OFFSET -6.774902 0.000000 0.000000
											CHANNELS 3 Xrotation Yrotation Zrotation
											JOINT RightHandMiddle4
											{
												OFFSET -5.403328 0.000000 0.000000
												CHANNELS 3 Xrotation Yrotation Zrotation
												End Site
												{
													OFFSET 0.027702 5.403244 0.017457
												}
											}
										}
									}
								}
								JOINT RightHandRing1
								{
									OFFSET -22.908302 -0.839325 -6.020576
									CHANNELS 3 Xrotation Yrotation Zrotation
									JOINT RightHandRing2
									{
										OFFSET -6.337502 0.000000 0.000000
										CHANNELS 3 Xrotation Yrotation Zrotation
										JOINT RightHandRing3
										{
											OFFSET -5.779297 0.000000 0.000000
											CHANNELS 3 Xrotation Yrotation Zrotation
											JOINT RightHandRing4
											{
												OFFSET -4.965698 0.000000 0.000000
												CHANNELS 3 Xrotation Yrotation Zrotation
												End Site
												{
													OFFSET 0.000000 4.965668 0.016226
												}
											}
										}
									}
								}
								JOINT RightHandPinky1
								{
									OFFSET -20.037003 -1.530334 -10.950259
									CHANNELS 3 Xrotation Yrotation Zrotation
									JOINT RightHandPinky2
									{
										OFFSET -5.254700 0.000000 0.000000
										CHANNELS 3 Xrotation Yrotation Zrotation
										JOINT RightHandPinky3
										{
											OFFSET -4.810204 0.000000 0.000000
											CHANNELS 3 Xrotation Yrotation Zrotation
											JOINT RightHandPinky4
											{
												OFFSET -3.647202 0.000000 0.000000
												CHANNELS 3 Xrotation Yrotation Zrotation
												End Site
												{
													OFFSET 0.000000 3.647186 0.011917
												}
											}
										}
									}
								}
							}
						}
					}
				}
			}
		}
	}
	JOINT LeftUpLeg
	{
		OFFSET 15.427100 -6.655098 0.678600
		CHANNELS 3 Xrotation Yrotation Zrotation
		JOINT LeftLeg
		{
			OFFSET 4.081073 -39.591068 13.024000
			CHANNELS 3 Xrotation Yrotation Zrotation
			JOINT LeftFoot
			{
				OFFSET -4.081074 -37.707932 -15.979700
				CHANNELS 3 Xrotation Yrotation Zrotation
				JOINT LeftToeBase
				{
					OFFSET 5.346399 -15.068900 20.645000
					CHANNELS 3 Xrotation Yrotation Zrotation
					JOINT LeftToe_End
					{
						OFFSET 2.754700 0.931300 11.300900
						CHANNELS 3 Xrotation Yrotation Zrotation
						End Site
						{
							OFFSET 0.000000 11.669021 0.000000
						}
					}
				}
			}
		}
	}
	JOINT RightUpLeg
	{
		OFFSET -15.569500 -6.655098 0.678600
		CHANNELS 3 Xrotation Yrotation Zrotation
		JOINT RightLeg
		{
			OFFSET -4.081825 -39.591045 13.023800
			CHANNELS 3 Xrotation Yrotation Zrotation
			JOINT RightFoot
			{
				OFFSET 4.081824 -37.707954 -15.979600
				CHANNELS 3 Xrotation Yrotation Zrotation
				JOINT RightToeBase
				{
					OFFSET -5.346400 -15.068900 20.645000
					CHANNELS 3 Xrotation Yrotation Zrotation
					JOINT RightToe_End
					{
						OFFSET -2.754700 0.931300 11.300900
						CHANNELS 3 Xrotation Yrotation Zrotation
						End Site
						{
							OFFSET 0.000000 11.669021 0.000000
						}
					}
				}
			}
		}
	}
}
MOTION
Frames: 4
Frame Time: 0.033333
38.731525 106.842789 299.961090 100.815354 -76.231571 118.360102 3.336670 -0.776183 -4.143185 6.728886 2.577015 -0.986845 6.739619 2.549200 -0.983866 14.448683 -0.181786 -5.284219 21.741247 -5.916508 -3.614186 0.000002 0.000000 -0.000000 3.617948 -29.155827 -3.516423 94.304224 -164.671298 153.310549 -0.000007 -104.577504 0.000001 -43.340016 -14.207301 -4.572883 -20.444161 -18.116831 0.894737 14.209601 40.136387 -2.947441 -20.240936 32.147337 35.968640 -0.000000 -0.000000 0.000000 0.135971 3.276172 -8.977430 0.074904 0.934796 -9.161842 0.985582 3.253844 -33.695055 0.000002 0.000000 -0.000000 0.134099 3.264227 -8.859275 1.105322 3.426335 -35.750235 0.723610 2.822304 -28.755199 0.000001 0.000001 -0.000000 0.626892 4.864674 -25.288866 0.969825 3.230126 -33.416793 0.373684 2.060644 -20.555237 0.000001 -0.000000 -0.000000 0.994289 5.525000 -32.694237 0.189385 1.479035 -14.593193 1.285932 3.663714 -38.670335 -0.000001 -0.000000 0.000002 2.799817 29.838392 0.404757 -79.620205 15.733150 68.475542 0.000141 104.626033 -0.000121 -52.373511 10.877213 16.241637 -21.147563 33.253005 -8.853302 26.886966 -29.562862 18.150934 9.761734 -23.569075 -3.147373 -0.000001 0.000000 -0.000001 -0.554851 8.020452 12.102578 1.063150 -2.963739 39.460564 0.191843 -1.324234 16.485206 -0.000002 -0.000000 0.000001 -3.092539 3.179202 26.040593 0.691470 -2.443770 31.593784 0.365855 -1.811067 22.839441 -0.000001 -0.000001 0.000001 -2.229020 1.941638 23.877038 0.279259 -1.589975 19.921947 0.083628 -0.879555 10.862806 -0.000001 0.000001 -0.000000 -14.721298 -5.152956 -1.217685 0.676797 -2.419773 31.247941 0.217091 -1.406730 17.544821 -0.000000 0.000000 0.000001 -91.701765 2.924178 10.576644 89.857853 -4.106975 1.249970 15.600731 0.371499 -4.066669 10.559882 0.000015 -0.000003 -0.000003 -0.000000 -0.000000 -80.308306 -17.729423 6.950276 112.582227 -2.094540 -3.880026 36.693303 12.499067 -10.945570 -2.667007 -0.000002 0.000024 -0.000000 0.000001 -0.000001 
41.664200 95.893661 291.864349 110.421701 -74.262550 129.774687 3.470977 -0.541995 -4.976991 6.978425 2.943582 -1.761684 6.986812 2.923426 -1.760919 14.097732 -0.040847 -5.061256 20.861227 -4.209275 -5.940363 -0.000001 0.000000 0.000000 3.490566 -29.910570 -6.154295 92.460264 -158.305521 151.455811 0.000096 -99.866067 0.000068 -44.128018 -10.200660 -4.810201 -20.444168 -18.116851 0.894727 14.209613 40.136387 -2.947459 -20.240955 32.147341 35.968664 -0.000000 -0.000001 0.000001 0.148791 3.353726 -9.745346 0.090858 1.028842 -10.092783 0.985570 3.253836 -33.695061 -0.000001 -0.000001 -0.000000 0.135601 3.273766 -8.953589 1.234659 3.598859 -37.860954 0.723599 2.822310 -28.755199 -0.000001 0.000001 0.000003 0.724637 5.061173 -27.437649 1.096499 3.414070 -35.602218 0.373691 2.060641 -20.555236 0.000002 0.000001 -0.000001 1.077577 5.650534 -34.170251 0.189387 1.479023 -14.593199 1.567645 3.989587 -42.889661 0.000002 0.000002 -0.000001 1.629069 30.610497 5.435156 -79.687291 20.935076 65.665309 0.000069 105.356631 -0.000079 -49.190254 13.343933 11.274913 -21.148496 33.253032 -8.853689 26.760778 -29.616701 17.815418 9.462503 -23.384927 -3.093506 0.000000 0.000001 -0.000000 -1.115573 11.399051 14.334866 1.261525 -3.189152 43.155471 0.346473 -1.764373 22.218295 0.000002 -0.000002 0.000001 -4.658703 5.800618 27.616318 0.995720 -2.879982 38.137912 0.608563 -2.303671 29.592259 -0.000001 -0.000000 -0.000000 -4.038846 4.336222 28.129120 0.487434 -2.076102 26.423125 0.110091 -1.007672 12.469330 0.000002 0.000000 -0.000001 -14.721293 -5.152962 -1.217680 0.809893 -2.626418 34.270638 0.267997 -1.558572 19.512139 0.000001 -0.000001 0.000000 -81.401334 4.609483 11.065111 66.336068 -4.286212 -1.976800 24.757090 -0.172235 -9.812431 7.592884 0.000023 -0.000003 0.000001 0.000000 -0.000000 -69.670204 -14.734733 6.093830 104.101515 -0.946630 -1.267091 23.335705 12.187737 3.617237 -1.468058 0.000003 0.000006 -0.000000 0.000002 -0.000000 
43.923527 83.628212 283.744751 116.970473 -74.398908 135.862202 3.502094 0.656937 -3.045172 7.172645 2.132031 -1.263057 7.169828 2.136488 -1.272809 14.670174 0.566039 -6.095709 20.746402 -1.205936 -8.329253 -0.000000 -0.000000 -0.000000 2.746851 -31.406525 -11.697690 95.294547 -149.720451 153.888137 0.000179 -94.388904 0.000196 -41.132683 -6.869735 1.943376 -20.444163 -18.116848 0.894731 14.209610 40.136377 -2.947468 -20.240958 32.147344 35.968664 -0.000000 0.000000 -0.000000 0.162063 3.428087 -10.483193 0.107857 1.120136 -10.999488 0.985573 3.253843 -33.695068 0.000001 0.000000 -0.000000 0.137542 3.286032 -9.074905 1.347821 3.739578 -39.628840 0.723604 2.822298 -28.755202 -0.000001 0.000001 -0.000000 0.820186 5.237020 -29.397534 1.210656 3.567846 -37.476961 0.373693 2.060644 -20.555236 -0.000002 0.000002 0.000001 1.155089 5.761392 -35.495974 0.189397 1.479011 -14.593206 1.829790 4.253718 -46.535807 -0.000001 0.000002 -0.000002 0.556750 34.577594 9.787799 -74.421646 25.341875 58.285822 0.000027 105.493248 -0.000025 -40.576064 16.416718 3.618554 -21.149409 33.253063 -8.854039 26.616769 -29.676328 17.434051 9.121728 -23.171774 -3.032313 0.000000 0.000005 0.000002 -2.033225 15.285487 16.933209 1.445032 -3.373917 46.360476 0.569602 -2.233705 28.608013 0.000002 -0.000001 0.000000 -6.563262 8.827334 29.110543 1.357427 -3.288306 44.853046 0.942483 -2.810936 37.065466 -0.000000 -0.000000 0.000002 -6.527486 6.882107 32.734307 0.773748 -2.572625 33.473719 0.135933 -1.118144 13.862419 0.000001 0.000000 -0.000001 -14.721310 -5.152960 -1.217698 0.977490 -2.856627 37.773326 0.316340 -1.688750 21.218169 0.000001 0.000001 0.000002 -69.276232 7.155018 9.659699 44.027748 -0.953766 -4.616132 39.523040 -4.150008 -12.079980 2.505167 -0.000021 -0.000003 -0.000000 -0.000000 0.000000 -57.613124 -14.036566 4.748941 95.033039 -1.899281 1.863970 8.850159 7.833854 13.250094 -0.757693 -0.000003 -0.000001 -0.000000 0.000001 0.000003 
46.044746 72.808289 277.010162 113.895098 -74.797969 133.898277 3.131294 -0.141795 -3.582573 6.349976 1.497616 -0.486593 6.349612 1.496539 -0.489597 15.164347 0.838409 -6.654881 19.593847 0.853898 -10.537741 0.000001 0.000000 0.000000 2.281726 -29.808353 -16.340627 103.786193 -142.655645 156.779425 0.001528 -86.973593 0.001537 -38.802779 -6.546951 8.386273 -20.444170 -18.116860 0.894733 14.209626 40.136405 -2.947476 -20.240951 32.147344 35.968661 -0.000000 0.000000 -0.000000 0.174284 3.492006 -11.118771 0.123978 1.200075 -11.795406 0.985573 3.253832 -33.695072 -0.000002 -0.000000 0.000000 0.139865 3.300387 -9.216900 1.427378 3.833429 -40.833538 0.723615 2.822308 -28.755192 -0.000000 -0.000001 -0.000001 0.900496 5.374576 -30.957385 1.295294 3.675378 -38.816583 0.373708 2.060644 -20.555229 0.000004 0.000002 -0.000000 1.217021 5.846159 -36.524778 0.189388 1.479026 -14.593193 2.029853 4.434223 -49.176559 -0.000003 -0.000001 -0.000002 -1.117910 35.943095 14.868753 -64.773320 29.144028 50.117923 -0.000032 105.067495 0.000042 -31.418433 17.999471 -3.654363 -21.150266 33.253097 -8.854357 26.469030 -29.735536 17.044483 8.774406 -22.951521 -2.967386 0.000001 -0.000001 -0.000002 -2.670787 17.415702 18.365067 1.538877 -3.460823 47.934804 0.712991 -2.478369 32.094892 -0.000000 0.000003 -0.000001 -7.657708 10.489154 29.879165 1.567490 -3.486390 48.407036 1.151177 -3.067416 41.133803 0.000001 0.000001 0.000001 -8.072882 8.164550 35.221127 0.953232 -2.825103 37.284094 0.149602 -1.172147 14.546566 -0.000000 0.000000 -0.000001 -14.721303 -5.152955 -1.217683 1.076086 -2.979382 39.710218 0.341496 -1.752132 22.056043 -0.000001 0.000001 -0.000002 -66.699803 8.172411 11.732187 40.510822 -0.239714 -8.144553 29.311525 -2.744290 -8.761448 -12.153526 0.068750 -1.980055 -0.000000 -0.000000 0.000000 -51.839015 -12.208206 2.721905 87.831602 -2.903247 4.283755 2.052681 1.288826 17.163471 -10.686342 1.140369 -5.266454 0.000001 0.000000 -0.000002 
